<?xml version="1.0" standalone="no"?>
<!DOCTYPE svg PUBLIC "-//W3C//DTD SVG 1.1//EN" "http://www.w3.org/Graphics/SVG/1.1/DTD/svg11.dtd" >
<svg xmlns="http://www.w3.org/2000/svg">
<metadata>
This is a custom SVG font generated by IcoMoon.
</metadata>
<defs>
<font id="IcoMoon" horiz-adv-x="700" >
<font-face units-per-em="1000" ascent="750" descent="-250" />
<missing-glyph horiz-adv-x="500" />
<glyph unicode="&#x21;" d="M690 117q18 -32 5 -54t-50 -22h-590q-37 0 -50 22t6 54l294 512q19 32 45 32t44 -32zM308 473l11 -241h61l12 241h-84zM350 73q26 0 42 16.5t16 42.5q-1 26 -16.5 43t-41.5 17t-42.5 -17t-16.5 -43t16 -42.5t42 -16.5h1z" />
<glyph unicode="&#x22;" d="M0 242q-1 9 2 30t12.5 50t28.5 63.5t49.5 71t75.5 72t107 67.5h47q-24 -23 -53 -53.5t-53.5 -61t-41 -56.5t-16.5 -39h9.5t9.5 -2q31 -6 54.5 -21.5t38.5 -37.5t20.5 -49t-0.5 -56t-21 -52.5t-36.5 -38.5t-49 -21t-58.5 0q-27 5 -49 17.5t-38.5 30.5t-26.5 40t-11 46z M700 596q-24 -23 -53 -53.5t-54 -61t-41.5 -56.5t-16.5 -39h10t10 -2q31 -6 54.5 -21.5t38 -37.5t20 -49t0.5 -56q-6 -29 -21 -52.5t-36.5 -38.5t-49 -21t-58.5 0q-27 5 -49 17.5t-38.5 30.5t-26.5 40t-11 46q-1 9 2 30t12.5 50t28.5 63.5t49.5 71t75.5 72t107 67.5h47z" />
<glyph unicode="&#x25;" d="M481 700l175 -175v-525h-613v700h438zM613 43v482h-132v131h-393v-613h525z" />
<glyph unicode="&#x26;" d="M699 489l1 -1l-16 -413q0 -1 -1 -2h-666h-1v2l-16 413q0 1 1 1h698zM44 538l27 89h231l17 -47h343l8 -42h-626z" />
<glyph unicode="&#x27;" d="M88 263v87h-45q-17 0 -30 13t-13 30v220q0 17 13 30t30 13h438q18 0 31 -13t13 -30v-220q0 -17 -13 -30t-31 -13h-306zM656 437q18 0 31 -12.5t13 -31.5v-218q0 -18 -13 -31t-31 -13h-43v-88l-88 88h-263q-17 0 -30.5 13t-13.5 31v131h307q18 0 30.5 13t12.5 31v87h88z " />
<glyph unicode="&#x28;" d="M683 148q16 -14 17 -34t-13 -34l-10 -9q-14 -14 -34 -13t-34 17l-273 288q-13 -12 -22 -21.5t-14 -14.5q9 -10 17 -21t1 -23q-24 -5 -37 -16.5t-19 -23.5q-7 -14 -8 -30l-69 -69l-27.5 -27.5t-25 -25.5t-20.5 -21l-13 -13q-9 -9 -20 -8.5t-21.5 5.5t-19 11.5t-11.5 10.5 q-4 3 -10.5 11.5t-11.5 19t-5.5 21.5t8.5 20q4 4 13.5 13t21 21t25 25.5l27.5 27.5l69 69q16 1 30 8q12 6 23.5 18.5t16.5 36.5q11 7 22.5 -1t21.5 -17q4 5 13.5 14.5t23.5 22.5l-27 28q-35 -17 -75 -10.5t-69 35.5q-25 25 -33.5 58.5t1.5 65.5l100 -95l78 78l-95 100 q32 9 65 1.5t59 -33.5q29 -29 35 -69t-11 -75l29 -28q17 17 33.5 33t30 29.5t23.5 23t14 13.5q7 8 11.5 15.5t8.5 14.5q4 8 7 15l44 31l12 -12l12 -12l-32 -43q-7 -3 -15 -7q-7 -4 -14.5 -9t-14.5 -12l-13.5 -13.5l-23 -23t-29.5 -30t-32 -33.5zM269 300q9 8 -1 18 q-9 9 -18 0l-202 -203q-9 -7 0 -18q11 -9 18 0z" />
<glyph unicode="&#x29;" d="M676 146q12 -11 18 -25t6 -28.5t-5.5 -28.5t-16.5 -26l-16 -16q-12 -11 -26 -16.5t-28.5 -5.5t-28.5 6t-25 18l-276 307q-57 -29 -118.5 -22t-106.5 52q-38 38 -48.5 90t6.5 103l151 -144l128 129l-144 150q51 17 103 7t91 -48q22 -23 35 -50.5t16.5 -57t-2 -59.5 t-20.5 -58l307 -277v0z" />
<glyph unicode="&#x2a;" d="M700 535l-185 -185l185 -185l-165 -165l-185 185l-185 -185l-165 165l185 185l-185 185l165 165l185 -185l185 185l165 -165v0z" />
<glyph unicode="&#x2b;" d="M700 458v-216h-242v-242h-216v242h-242v216h242v242h216v-242h242v0z" />
<glyph unicode="&#x2c;" d="M658 640q17 0 29.5 -12.5t12.5 -29.5v-349q0 -17 -12.5 -29.5t-29.5 -12.5h-368l-118 -147v147h-130q-17 0 -29.5 12.5t-12.5 29.5v349q0 17 12.5 29.5t29.5 12.5h616v0z" />
<glyph unicode="&#x2d;" d="M700 242h-700v216h700v-216v0z" />
<glyph unicode="&#x2e;" d="M568 261v-190h-568v429h255q-28 -16 -54 -38l-16 -16t-15 -17h-99v-288h426v70zM167 235q0 41 19 85t54 80.5t85 60.5t112 26v142l263 -203l-266 -187v139q-84 0 -136 -22.5t-81 -49.5q-34 -32 -50 -71z" />
<glyph unicode="&#x30;" d="M350 693l350 -395h-223v-291h-254v291h-223l350 395v0z" />
<glyph unicode="&#x31;" d="M111 606l526 31l-31 -526l-159 158l-205 -206l-179 178l206 206l-158 159v0z" />
<glyph unicode="&#x32;" d="M693 350l-395 -350v223h-291v254h291v223l395 -350v0z" />
<glyph unicode="&#x33;" d="M606 589l31 -526l-526 31l158 159l-206 205l179 179l205 -206l159 158v0z" />
<glyph unicode="&#x34;" d="M350 7l-350 395h223v291h254v-291h223l-350 -395v0z" />
<glyph unicode="&#x35;" d="M589 94l-526 -31l32 526l158 -158l206 206l178 -179l-206 -205l158 -159v0z" />
<glyph unicode="&#x36;" d="M7 350l395 350v-223h291v-254h-291v-223l-395 350v0z" />
<glyph unicode="&#x37;" d="M95 111l-32 526l526 -31l-158 -159l206 -206l-178 -178l-206 206l-158 -158v0z" />
<glyph unicode="&#x3a;" d="M566 538l-107 -188l-109 -188l-108 188l-108 188h216h216v0z" />
<glyph unicode="&#x3b;" d="M134 162l108 188l108 188l109 -188l107 -188h-216h-216v0z" />
<glyph unicode="&#x3c;" d="M538 134l-188 107l-188 109l188 108l188 108v-216v-216v0z" />
<glyph unicode="&#x3e;" d="M162 566l188 -108l188 -108l-188 -109l-188 -107v216v216v0z" />
<glyph unicode="&#x3f;" d="M350 700q72 0 136 -27.5t111.5 -75t75 -111.5t27.5 -136t-27.5 -136t-75 -111.5t-111.5 -75t-136 -27.5t-136 27.5t-111.5 75t-75 111.5t-27.5 136t27.5 136t75 111.5t111.5 75t136 27.5zM350 74q26 0 44.5 18t18.5 44t-18.5 44.5t-44.5 18.5t-44 -18.5t-18 -44.5t18 -44 t44 -18zM503 455q6 18 6 37q0 28 -12 54t-32 43q-18 17 -49 28q-15 5 -31 7.5t-34 2.5q-33 0 -60 -12q-28 -10 -49 -30q-11 -11 -19 -23t-15 -26q-6 -15 -10 -31.5t-6 -34.5h87q13 84 74 84q14 0 27 -5q11 -4 22 -13q7 -7 14 -21q5 -13 5 -26q0 -7 -2 -15q0 -8 -5 -16 q-3 -6 -14 -18l-11 -11t-14 -13q-38 -31 -52 -60q-15 -30 -15 -103h83q0 54 7 69q2 7 14 19q10 12 28 25q7 7 14 13.5t14 13.5q11 12 21 29q9 15 14 33z" />
<glyph unicode="&#x43;" d="M700 625q-53 -61 -107 -125.5t-108.5 -135t-109 -149t-108.5 -168.5q-13 15 -33 37.5t-44.5 48.5t-51 53.5t-52 53.5t-48 48.5t-38.5 37.5l66 67l158 -141q65 66 138 136q63 60 143 129.5t167 135.5z" />
<glyph unicode="&#x44;" d="M470 493l20 -15l-233 -370l-67 49zM350 657q72 0 136 -27.5t111.5 -75t75 -111.5t27.5 -136q0 -74 -29.5 -141t-83.5 -117l-7 -6h-460l-7 6q-54 50 -83.5 117t-29.5 141q0 72 27.5 136t75 111.5t111.5 75t136 27.5zM589 221q1 4 2 7.5t3 7.5l49 -16q10 36 12 74h-102 q0 3 0.5 6t0.5 7q0 3 -0.5 6t-0.5 6h102q-2 40 -12 74l-49 -16q-2 4 -3 8l-2 8l49 16q-14 38 -34 66l-83 -59q-6 10 -14 20l82 60q-24 30 -54 53l-30 -42q-3 2 -6 4.5t-7 5.5l31 41q-30 21 -67 35l-31 -97l-12 4t-13 4l32 97q-18 5 -36 7.5t-38 3.5v-52h-8h-8v52 q-20 -1 -38 -3.5t-36 -7.5l32 -97q-7 -2 -13 -4l-12 -4l-31 97q-37 -14 -67 -35l31 -41q-4 -3 -7 -5.5t-6 -4.5l-30 42q-30 -23 -54 -53l82 -60q-8 -10 -14 -20l-83 59q-20 -28 -34 -66l49 -16l-2 -8t-3 -8l-49 16q-11 -36 -11 -74h101q0 -3 -0.5 -6t-0.5 -6q0 -4 0.5 -7 t0.5 -6h-101q0 -36 11 -74l49 16q2 -4 3 -7.5t2 -7.5l-49 -16q24 -66 75 -117h426q51 51 75 117z" />
<glyph unicode="&#x46;" d="M615 58q3 -5 1.5 -11.5t-6.5 -9.5l-59 -35q-5 -4 -11.5 -2t-8.5 8l-131 247q-39 -15 -79.5 -16t-78.5 11.5t-70.5 37.5t-54.5 62q-25 41 -31 86.5t4.5 88.5t37 80t67.5 62q41 24 86.5 30t88.5 -4.5t80.5 -37t61.5 -67.5q23 -38 30 -79.5t-0.5 -81.5t-29 -76t-54.5 -63z M395 335q28 16 46 41.5t25.5 54.5t3.5 60t-21 59t-42 46t-54.5 25t-60 3t-58.5 -21t-46 -42t-25.5 -54t-3.5 -59.5t21 -58.5t42 -46.5t54.5 -25.5t60 -3t58.5 21z" />
<glyph unicode="&#x47;" d="M577 300q50 -5 84 -28t39 -54h-141q-13 21 -34.5 39t-50.5 31q11 4 24 7t27 5v5q-16 10 -26 30.5t-10 46.5q0 35 18 60t44 25q25 0 43.5 -25t18.5 -60q0 -26 -10 -46.5t-26 -30.5v-5zM225 288q-59 -26 -84 -70h-141q5 31 39 54t84 28v5q-16 10 -25.5 30.5t-9.5 46.5 q0 35 17.5 60t43.5 25t44 -25t18 -60q0 -26 -10 -46.5t-26 -30.5v-5q14 -2 26.5 -5t23.5 -7zM385 292q34 -3 63 -16.5t51 -32.5t36 -41t17 -43h-404q3 21 17 43t36 41t51 32.5t62 16.5q1 3 1 8q-22 14 -35 42t-13 63q0 24 6.5 44.5t17.5 36t26.5 24.5t32.5 9t32 -9 t26.5 -24.5t18 -36t6.5 -44.5q0 -35 -13 -63t-35 -42v-8z" />
<glyph unicode="&#x48;" d="M350 591l350 -350h-92l-258 258l-257 -258h-93zM121 212l229 230l227 -227v-215h-176v169h-104v-169h-176v212z" />
<glyph unicode="&#x49;" d="M350 700q72 0 136 -27.5t111.5 -75t75 -111.5t27.5 -136t-27.5 -136t-75 -111t-111.5 -74.5t-136 -27.5t-136 27.5t-111.5 74.5t-75 111t-27.5 136t27.5 136t75 111.5t111.5 75t136 27.5zM295 580q-21 -20 -21 -46q0 -27 21 -46q20 -19 50 -19q29 0 49 19t20 46t-20 46 t-49 19q-30 0 -50 -19zM467 144q-5 1 -9.5 1.5t-8.5 2.5q-5 1 -8.5 2t-7.5 3q-10 3 -15 11q-6 7 -6 19v228l-179 -4v-23q5 0 11.5 -1t12.5 -3t11 -3.5t8 -3.5q5 -2 8 -5.5t6 -7.5q6 -9 6 -20v-161q0 -14 -5 -19q-5 -8 -15 -11q-4 -1 -7.5 -2t-8.5 -1t-9 -0.5t-9 -1.5v-43 h225v43z" />
<glyph unicode="&#x4c;" d="M583 611q54 -48 85.5 -115.5t31.5 -145.5q0 -20 -2 -38t-6 -36l-114 37q3 18 3 37q0 47 -17.5 89t-50.5 74q0 1 -1 1zM174 652q38 23 83 35.5t93 12.5t93 -12.5t83 -35.5l-70 -97q-49 26 -106 26t-106 -26zM315 1q-48 5 -91.5 22.5t-80.5 44.5t-66 63t-48 78l114 37 q9 -17 19.5 -31.5t24.5 -27.5q26 -27 59 -43.5t69 -21.5v-121zM8 276q-4 18 -6 36t-2 38q0 78 31.5 145.5t85.5 115.5l71 -97q-1 0 -1 -1q-33 -32 -50.5 -74t-17.5 -89q0 -19 3 -37zM671 209q-19 -42 -48 -78t-66 -63t-80.5 -44.5t-91.5 -22.5v121q36 5 69 21.5t59 43.5 q26 24 43 59z" />
<glyph unicode="&#x4f;" d="M638 283q9 -16 22 -28t27 -21l-69 -119q-24 14 -50 17t-51 -3.5t-46 -22.5t-35 -40q-9 -16 -13 -32.5t-4 -33.5h-138q0 27 -10.5 51.5t-28.5 42.5t-42.5 28.5t-51.5 10.5q-37 0 -67 -18l-68 120q24 14 39.5 35t22 46t3.5 51t-16 50q-20 31 -49 48l68 120 q24 -14 50.5 -17.5t51 3t46 22.5t35.5 40q17 30 17 67h138q0 -28 10.5 -52.5t28.5 -42.5t42.5 -28.5t51.5 -10.5q18 0 35 5t32 13l68 -119q-24 -14 -39.5 -35t-22.5 -46t-4 -51t17 -50zM350 209q29 0 55 11t45 30t30 45t11 55t-11 55t-30 45t-45 30t-55 11t-55 -11t-45 -30 t-30 -45t-11 -55t11 -55t30 -45t45 -30t55 -11z" />
<glyph unicode="&#x50;" d="M498 631l133 -132l-457 -457l-174 -42l42 174zM505 541l-384 -384l37 -36l383 384zM666 666q27 -28 33 -60.5t-14 -52.5l-28 -27l-132 132l27 27q20 19 53 14t61 -33z" />
<glyph unicode="&#x53;" d="M131 0q-27 0 -51 10.5t-41.5 28t-28 41.5t-10.5 51h700q0 -27 -10.5 -51t-28.5 -41.5t-42 -28t-51 -10.5h-437zM568 43h45v44h-45v-44zM350 437l-132 131h88v132h87v-132h88zM700 175h-700l43 350h132l131 -132h87l132 132h131z" />
<glyph unicode="&#x54;" d="M619 534l-60 -534h-418l-60 534h-52l21 88h191v35q0 17 12.5 30t30.5 13h132q18 0 30.5 -13t12.5 -30v-35h191l21 -88h-52zM254 105l-37 350h-52l37 -350h52zM379 455h-58v-350h58v350zM535 455h-52l-37 -350h52zM275 622h150v35q0 8 -9 8h-132q-9 0 -9 -8v-35z" />
<glyph unicode="&#x55;" d="M350 259q-30 0 -56.5 15.5t-46 42.5t-30.5 63.5t-11 77.5t11 77t30.5 63t46 42.5t56.5 15.5t56 -15.5t45.5 -42.5t31 -63t11.5 -77t-11.5 -77.5t-31 -63.5t-45.5 -42.5t-56 -15.5zM461 248q52 -10 95.5 -29.5t75.5 -46.5t50 -59t18 -68h-700q0 36 18 68t49.5 59 t75.5 46.5t96 29.5q25 -18 52.5 -28t58.5 -10t58.5 10t52.5 28z" />
<glyph unicode="&#x56;" d="M698 463q1 -11 2 -21q1 -8 0.5 -17t-2.5 -14q-8 -5 -13 -18t-9.5 -31t-9 -38.5t-11.5 -40.5t-25.5 -31t-39 -16t-39 -6t-25.5 -1h-20t-25.5 0.5t-26 3.5t-21.5 9t-17.5 22.5t-15.5 35.5t-11.5 37t-6.5 27q-4 15 -15 18t-16 3h-1h-1q-5 0 -16 -3t-14 -18q-2 -9 -7 -27 t-12 -37t-15.5 -35.5t-17.5 -22.5t-21.5 -9t-26 -3.5t-26 -0.5h-19.5q-8 0 -26 1t-38.5 6t-39 16t-25.5 31t-11.5 40.5t-8.5 38.5t-9 31t-14 18q-2 5 -2.5 14t0.5 17q1 10 2 21q16 2 35.5 3.5t37.5 2.5t34 1.5t25 0.5t27.5 -0.5t38.5 -2.5t38 -5t27 -7q17 -8 36.5 -17.5 t48.5 -10.5q29 1 48.5 10.5t36.5 17.5q9 4 27 7t38 5t38.5 2.5t27.5 0.5t25 -0.5t34.5 -1.5t37.5 -2.5t35 -3.5zM269 287q3 6 7.5 18.5t8.5 27t7 27.5t3 21q0 14 -5 25t-22 20q-17 10 -60 16t-98 4q-28 -1 -41 -7.5t-17.5 -17t-3.5 -24t2 -27.5q2 -30 6.5 -49t11 -30.5 t14.5 -17.5t17 -10q9 -5 26 -7.5t35.5 -3.5t35.5 -1t27 1q20 2 30 12t16 23zM650 370q1 14 2 27.5t-3.5 24t-17.5 17t-41 7.5q-55 2 -98 -4t-60 -16q-17 -9 -22 -20t-5 -25q0 -8 3 -21t7 -27.5t8.5 -27t7.5 -18.5q6 -13 16.5 -23t29.5 -12q10 -1 27 -1t35.5 1t35.5 3.5 t26 7.5q9 4 17 10t14.5 17.5t11 30.5t6.5 49z" />
<glyph unicode="&#x5c;" d="M598 598q50 -50 76 -113.5t26 -133.5q0 -71 -26 -134.5t-76 -113.5q-51 -51 -114 -77t-134 -26q-70 0 -133.5 26t-113.5 77q-51 50 -77 113.5t-26 134.5q0 70 26 133.5t77 113.5q50 50 113 76t134 26t134.5 -26t113.5 -76zM350 622q-88 0 -159 -51l379 -379 q25 34 38.5 74t13.5 85q0 56 -21.5 105.5t-58 86t-86 58t-106.5 21.5zM158 158q38 -39 87.5 -59.5t104.5 -20.5q46 0 87.5 14.5t75.5 40.5l-381 381q-26 -35 -40 -76.5t-14 -86.5q0 -55 20.5 -105t59.5 -88z" />
<glyph unicode="&#x5f;" d="M685 585q7 -7 7 -16t-7 -15l-50 -51l-132 132l51 50q6 7 15 7t15 -7zM219 350l241 241l131 -131l-241 -241l-175 -44zM568 350l88 87v-393q0 -18 -12.5 -31t-30.5 -13h-569q-18 0 -31 13t-13 31v569q0 18 13 30.5t31 12.5h394l-88 -88h-262v-481h480v263z" />
<glyph unicode="&#x63;" d="M350 700q73 0 136.5 -27.5t111 -75t75 -111.5t27.5 -136q0 -73 -27.5 -136.5t-75 -111t-111 -75t-136.5 -27.5q-72 0 -136 27.5t-111.5 75t-75 111t-27.5 136.5q0 72 27.5 136t75 111.5t111.5 75t136 27.5zM350 56q61 0 114.5 23t93.5 63t63 93.5t23 114.5t-23 114 t-63 93t-93.5 63t-114.5 23t-114.5 -23t-93 -63t-62.5 -93t-23 -114t23 -114.5t62.5 -93.5t93 -63t114.5 -23zM521 404l8 -49l-126 -21q-5 -17 -19.5 -28t-33.5 -11q-23 0 -39 16t-16 39q0 16 8.5 29t22.5 20v193h49v-193q6 -3 10.5 -7.5l9.5 -9.5z" />
<glyph unicode="&#x64;" d="M608 610q17 0 29.5 -15t12.5 -36v-73h-600v73q0 21 12 36t29 15h98v64q0 11 6 18.5t15 7.5t15.5 -7.5t6.5 -18.5v-64h231v64q0 11 6.5 18.5t15.5 7.5t15 -7.5t6 -18.5v-64h102zM210 515q17 0 28 11.5t11 27.5q0 21 -17 33v-19q0 -11 -6.5 -18t-15.5 -7t-15 7t-6 18v19 q-18 -11 -18 -33q0 -16 11 -27.5t28 -11.5zM485 515q17 0 28 11.5t11 27.5q0 22 -18 33v-19q0 -11 -6 -18t-15 -7t-15.5 7t-6.5 18v19q-17 -12 -17 -33q0 -16 11 -27.5t28 -11.5zM50 465h600v-415q0 -21 -12.5 -35.5t-29.5 -14.5h-517q-17 0 -29 14.5t-12 35.5v415zM452 314 h156v111h-156v-111zM452 187h156v92h-156v-92zM452 41h156v111h-156v-111zM278 314h139v111h-139v-111zM278 187h139v92h-139v-92zM278 41h139v111h-139v-111zM87 314h156v111h-156v-111zM87 187h156v92h-156v-92zM87 41h156v111h-156v-111z" />
<glyph unicode="&#x66;" d="M405 650q6 -20 19.5 -35t37.5 -21t60.5 0.5t90.5 29.5v-277q-24 -11 -57.5 -11t-65.5 8t-56 21.5t-29 30.5q-5 14 -36 12.5t-71.5 -12t-81 -27.5t-62.5 -33v-300q0 -15 -9.5 -25.5t-23.5 -10.5t-23.5 10.5t-9.5 25.5v628q0 15 9.5 25.5t23.5 10.5q22 0 30 -20q21 0 61 2 t81 0.5t73.5 -8.5t38.5 -24zM154 352q21 54 26.5 102t2 88t-12.5 70t-16 47v-307z" />
<glyph unicode="&#x68;" d="M350 700q72 0 135.5 -27.5t111 -75t75 -111.5t27.5 -136t-27.5 -136t-75 -111.5t-111 -75t-135.5 -27.5t-136 27.5t-111.5 75t-75 111.5t-27.5 136t27.5 136t75 111.5t111.5 75t136 27.5zM659 222q25 61 25 128t-25 128l-156 -65q13 -29 13 -63q0 -35 -13 -64zM350 199 q31 0 58.5 12t48 32.5t32.5 48t12 58.5t-12 58.5t-32.5 48t-48 32.5t-58.5 12t-58.5 -12t-48 -32.5t-32.5 -48t-12 -58.5t12 -58.5t32.5 -48t48 -32.5t58.5 -12zM196 286q-13 32 -13 64q0 17 3.5 32.5t9.5 30.5l-155 65q-12 -29 -19 -61.5t-7 -66.5q0 -35 7 -67t19 -61z M478 659q-59 25 -128 25q-70 0 -129 -25l65 -156q29 13 64 13q34 0 63 -13zM221 41q61 -26 129 -26q67 0 128 26l-65 155q-15 -6 -30.5 -9.5t-32.5 -3.5q-32 0 -64 13z" />
<glyph unicode="&#x69;" d="M700 344v-194q0 -17 -12.5 -29.5t-30.5 -12.5h-614q-18 0 -30.5 12.5t-12.5 29.5v194l209 248h282zM650 326l-182 217h-236l-182 -217h138l73 -79h178l73 79h138z" />
<glyph unicode="&#x6c;" d="M0 525v175h175v-175h-175zM262 700h438v-175h-438v175zM262 263v174h438v-174h-438zM262 0v175h438v-175h-438zM0 263v174h175v-174h-175zM0 0v175h175v-175h-175z" />
<glyph unicode="&#x6d;" d="M445 337l255 229v-404zM0 566l255 -229l-255 -175v404zM350 252l61 55l289 -173h-700l289 173zM679 566l-329 -245l-329 245h658z" />
<glyph unicode="&#x70;" d="M700 176q1 -16 -10 -26.5t-26 -10.5h-91l23 -109h-492l23 109h-91q-15 0 -26 10.5t-10 26.5l11 315q1 16 12 27t27 11h117v141h366v-141h117q16 0 27 -11t12 -27zM197 529h306v111h-306v-111zM559 60l-50 230h-318l-50 -230h418zM642 476h-50v-82h50v82z" />
<glyph unicode="&#x73;" d="M615 700l85 -85v-615h-700v700h615zM350 604v-165h89v165h-89zM627 73v512l-43 42h-60v-224h-390v224h-61v-554h554z" />
<glyph unicode="&#x74;" d="M683 148q16 -14 17 -34t-13 -34l-10 -9q-14 -14 -34 -13t-34 17l-273 288q-13 -12 -22 -21.5t-14 -14.5q9 -10 17 -21t1 -23q-24 -5 -37 -16.5t-19 -23.5q-7 -14 -8 -30l-69 -69l-27.5 -27.5t-25 -25.5t-20.5 -21l-13 -13q-9 -9 -20 -8.5t-21.5 5.5t-19 11.5t-11.5 10.5 q-4 3 -10.5 11.5t-11.5 19t-5.5 21.5t8.5 20q4 4 13.5 13t21 21t25 25.5l27.5 27.5l69 69q16 1 30 8q12 6 23.5 18.5t16.5 36.5q11 7 22.5 -1t21.5 -17q4 5 13.5 14.5t23.5 22.5l-27 28q-35 -17 -75 -10.5t-69 35.5q-25 25 -33.5 58.5t1.5 65.5l100 -95l78 78l-95 100 q32 9 65 1.5t59 -33.5q29 -29 35 -69t-11 -75l29 -28q17 17 33.5 33t30 29.5t23.5 23t14 13.5q7 8 11.5 15.5t8.5 14.5q4 8 7 15l44 31l12 -12l12 -12l-32 -43q-7 -3 -15 -7q-7 -4 -14.5 -9t-14.5 -12l-13.5 -13.5l-23 -23t-29.5 -30t-32 -33.5zM269 300q9 8 -1 18 q-9 9 -18 0l-202 -203q-9 -7 0 -18q11 -9 18 0z" />
<glyph unicode="&#x76;" d="M350 402q22 0 37 -15t15 -37t-15 -37t-37 -15t-37 15t-15 37t15 37t37 15zM693 368q14 -19 0 -37q-17 -20 -36.5 -37.5t-39.5 -33.5q-44 -35 -93.5 -62t-104.5 -39q-32 -7 -69 -7q-35 0 -69 7q-55 12 -104.5 39t-93.5 62q-20 16 -39 33.5t-36 37.5q-15 18 0 37q5 7 11 13 l12 12q33 32 70 60.5t78 49.5q26 14 54 24.5t57 15.5q16 2 30.5 3t29.5 1t30 -1t30 -3q29 -5 57 -15.5t54 -24.5q41 -21 78.5 -49.5t69.5 -60.5q7 -6 12.5 -12t11.5 -13zM350 215q28 0 52.5 10.5t42.5 29t28.5 43t10.5 52.5t-10.5 52.5t-28.5 42.5t-42.5 28.5t-52.5 10.5 t-52.5 -10.5t-42.5 -28.5t-28.5 -42.5t-10.5 -52.5t10.5 -52.5t28.5 -43t42.5 -29t52.5 -10.5z" />
<glyph unicode="&#x78;" d="M495 700l205 -205v-290l-205 -205h-290l-205 205v290l205 205h290zM554 225l-125 125l125 126l-78 79l-126 -126l-126 126l-78 -79l126 -126l-126 -125l78 -79l126 126l126 -126z" />
<glyph unicode="&#x7b;" d="M350 700q72 0 136 -27.5t111.5 -75t75 -111.5t27.5 -136t-27.5 -136t-75 -111.5t-111.5 -75t-136 -27.5t-136 27.5t-111.5 75t-75 111.5t-27.5 136t27.5 136t75 111.5t111.5 75t136 27.5zM548 412h-137v136h-122v-136h-136v-123h136v-136h122v136h137v123z" />
<glyph unicode="&#x7d;" d="M350 700q72 0 136 -27.5t111.5 -75t75 -111.5t27.5 -136t-27.5 -136t-75 -111.5t-111.5 -75t-136 -27.5t-136 27.5t-111.5 75t-75 111.5t-27.5 136t27.5 136t75 111.5t111.5 75t136 27.5zM547 411h-395v-122h395v122z" />
</font>
</defs>
</svg>
