<?xml version="1.0" standalone="no"?>
<!DOCTYPE svg PUBLIC "-//W3C//DTD SVG 1.1//EN" "http://www.w3.org/Graphics/SVG/1.1/DTD/svg11.dtd" >
<svg xmlns="http://www.w3.org/2000/svg">
<metadata>
This is a custom SVG webfont generated by Font Squirrel.
</metadata>
<defs>
<font id="IcoMoonRegular" horiz-adv-x="1433" >
<font-face units-per-em="2048" ascent="1536" descent="-512" />
<missing-glyph horiz-adv-x="500" />
<glyph unicode="!" d="M10.5 129q-26.5 45 12.5 111l602 1048q39 66 92 66t90 -66l606 -1048q37 -66 10.5 -111t-102.5 -45h-1208q-76 0 -102.5 45zM596 270.5q0 -53.5 33 -87t86 -33.5h2q53 0 86 33.5t33 86.5q-2 53 -34 88t-85 35t-87 -34.5t-34 -88zM631 969l22 -494h125l25 494h-172z" />
<glyph unicode="&#x22;" d="M0 496q-2 18 4 61t25.5 102.5t58.5 130t101.5 145.5t154.5 147.5t219 138.5h96q-49 -47 -108 -109.5t-109.5 -125t-84 -116t-33.5 -79.5h18l20 -5q63 -12 111.5 -43.5t79.5 -76.5t42 -100.5t-1 -115t-43 -107.5t-75 -79t-100.5 -43t-119.5 0q-55 10 -100 36t-79 62.5 t-54.5 82t-22.5 94.5zM774 496q-2 18 4 61t25.5 102.5t58.5 130t101.5 145.5t154.5 147.5t219 138.5h97q-49 -47 -108.5 -109.5t-111 -125t-85 -116t-33.5 -79.5h20l21 -5q63 -12 111 -43.5t78 -76.5t41 -100.5t1 -114.5q-12 -59 -43 -107.5t-75 -79.5t-100 -43t-120 0 q-55 10 -100 36t-79 62.5t-54.5 82t-22.5 94.5z" />
<glyph unicode="%" d="M88 0v1434h897l358 -359v-1075h-1255zM180 88h1075v987h-270v268h-805v-1255z" />
<glyph unicode="&#x26;" d="M0 999q0 2 2 2h1430l2 -2l-33 -845q0 -2 -2 -4h-1364h-2v4zM90 1102l55 182h473l35 -96h703l16 -86h-1282z" />
<glyph unicode="'" d="M0 805v450q0 35 26.5 61.5t61.5 26.5h897q37 0 63.5 -26.5t26.5 -61.5v-450q0 -35 -26.5 -61.5t-63.5 -26.5h-627l-178 -178v178h-92q-35 0 -61.5 26.5t-26.5 61.5zM446 358v269h629q37 0 62.5 26.5t25.5 63.5v178h180q37 0 64 -25.5t27 -64.5v-447q0 -37 -27 -63.5 t-64 -26.5h-88v-180l-180 180h-538q-35 0 -63 26.5t-28 63.5z" />
<glyph unicode="(" d="M-1 262.5q-1 22.5 17 40.5l29 27q18 18 41 43l53 53l56 55l141 142q33 2 61 16q25 12 48.5 37.5t33.5 75.5q23 14 46.5 -2.5t43.5 -34.5q8 10 29 30l47 46l-55 57q-72 -35 -154 -21.5t-141 72.5q-51 51 -68.5 119.5t2.5 134.5l205 -195l160 160l-195 205q66 18 133.5 3 t120.5 -69q59 -59 71.5 -141t-22.5 -153l60 -58l69 68l62 59l47 49l29 27q14 16 22 31l19 30q8 16 14 31l90 64l25 -25l24 -25l-65 -88q-14 -6 -31 -14q-14 -8 -29.5 -18.5t-29.5 -24.5l-29 -29l-45 -45l-62 -61l-65 -70l592 -561q33 -29 35 -69.5t-27 -69.5l-21 -19 q-29 -29 -69.5 -26.5t-69.5 35.5l-559 589q-27 -25 -45 -43l-29 -30q18 -20 35 -43t2 -47q-49 -10 -75.5 -34t-38.5 -48q-14 -29 -17 -62l-141 -141l-57 -55l-52 -54l-41 -43l-26 -26q-18 -18 -41 -17.5t-44.5 11t-39 23.5t-23.5 22q-8 6 -21.5 23.5t-23.5 39t-11 44z M98 199q23 -18 37 0l416 415q18 16 -2 37q-18 18 -37 0l-414 -415q-18 -14 0 -37z" />
<glyph unicode=")" d="M9.5 923.5q-21.5 106.5 13.5 211.5l309 -295l262 264l-295 307q104 35 210.5 14.5t186.5 -98.5q45 -47 72 -103.5t34 -116.5t-4.5 -121.5t-41.5 -119.5l628 -567q25 -23 37.5 -51.5t12.5 -58t-11.5 -58.5t-33.5 -53l-33 -33q-25 -23 -53.5 -34t-58.5 -11t-58.5 12.5 t-50.5 36.5l-566 629q-117 -59 -242.5 -45t-217.5 106q-78 78 -99.5 184.5z" />
<glyph unicode="*" d="M0 338l379 379l-379 379l338 338l379 -379l379 379l338 -338l-379 -379l379 -379l-338 -338l-379 379l-379 -379z" />
<glyph unicode="+" d="M0 496v442h496v496h442v-496h496v-442h-496v-496h-442v496h-496z" />
<glyph unicode="," d="M0 510v715q0 35 25.5 60.5t60.5 25.5h1262q35 0 60.5 -25.5t25.5 -60.5v-715q0 -35 -26 -60.5t-60 -25.5h-754l-242 -301v301h-266q-35 0 -60.5 25.5t-25.5 60.5z" />
<glyph unicode="-" d="M0 496v442h1434v-442h-1434z" />
<glyph unicode="." d="M0 145v879h522q-57 -33 -110 -78l-33 -33l-31 -34h-203v-590h873v143l145 103v-390h-1163zM342 481q0 84 39 174t110.5 165t174 124t229.5 53v291l539 -416l-545 -383v285q-172 0 -278.5 -46t-166.5 -101q-69 -66 -102 -146z" />
<glyph unicode="0" d="M0 610l717 809l717 -809h-457v-596h-520v596h-457z" />
<glyph unicode="1" d="M129 494l422 421l-324 326l1078 64l-64 -1078l-326 324l-419 -422z" />
<glyph unicode="2" d="M14 457v520h596v457l809 -717l-809 -717v457h-596z" />
<glyph unicode="3" d="M129 938l367 367l419 -422l326 323l64 -1077l-1078 64l324 325z" />
<glyph unicode="4" d="M0 823h457v596h520v-596h457l-717 -809z" />
<glyph unicode="5" d="M129 129l66 1077l323 -323l422 422l365 -367l-422 -420l323 -325z" />
<glyph unicode="6" d="M14 717l809 717v-457h596v-520h-596v-457z" />
<glyph unicode="7" d="M129 1305l1077 -64l-323 -326l422 -421l-365 -365l-422 422l-323 -324z" />
<glyph unicode=":" d="M274 1102h443h442l-219 -385l-223 -385l-221 385z" />
<glyph unicode=";" d="M274 332l222 385l221 385l223 -385l219 -385h-442h-443z" />
<glyph unicode="&#x3c;" d="M332 717l385 221l385 221v-442v-443l-385 220z" />
<glyph unicode="&#x3e;" d="M332 274v443v442l385 -221l385 -221l-385 -223z" />
<glyph unicode="?" d="M0 716.5q0 147.5 56.5 278.5t153.5 228.5t228 154t278.5 56.5t278.5 -56.5t228.5 -154t154 -228.5t56.5 -278.5t-56.5 -278.5t-154 -228t-228.5 -153.5t-278.5 -56.5t-278.5 56.5t-228 153.5t-153.5 228t-56.5 278.5zM393 963h178q27 172 152 172q29 0 55 -11 q23 -8 45 -26q14 -14 29 -43q10 -27 10 -54q0 -14 -4 -30q0 -16 -10 -33q-6 -12 -29 -37l-22 -22l-29 -27q-78 -63 -106 -123q-31 -61 -31 -211h170q0 111 14 141q4 14 29 39q20 25 57 52l29 28l28 27q23 25 43 59q18 31 29 68q12 37 12 76q0 57 -24.5 110t-65.5 88 q-37 35 -100 58q-31 10 -63.5 15t-69.5 5q-68 0 -123 -24q-57 -20 -100 -62q-23 -23 -39.5 -47.5t-30.5 -52.5q-12 -31 -20.5 -64.5t-12.5 -70.5zM590 278.5q0 -53.5 37 -90t90 -36.5t91 36.5t38 90t-38 91.5t-91 38t-90 -38t-37 -91.5z" />
<glyph unicode="C" d="M0 668l135 137l324 -289l282 279q129 123 293 265t342 277l58 -57l-220 -256l-223 -279q-111 -143 -222.5 -303.5t-221.5 -345.5l-68 76l-90 100l-106 109l-107 111l-98 98z" />
<glyph unicode="D" d="M0 629q0 147 56.5 278t153.5 228.5t228 154t278.5 56.5t278.5 -56.5t228.5 -154t154 -228.5t56.5 -278q0 -152 -60.5 -289t-171.5 -240l-14 -12h-942l-15 12q-111 102 -171 239.5t-60 289.5zM94 602q0 -74 23 -151l100 32q4 -8 6 -15t4 -15l-100 -33q49 -135 154 -240 h872q104 104 154 240l-101 33q2 8 4 15t7 15l100 -32q20 74 24 151h-208q0 6 1 12.5t1 14.5q0 6 -1 12t-1 12h208q-4 82 -24 152l-100 -33q-4 8 -7 16l-4 17l101 33q-29 78 -70 135l-170 -121q-12 20 -29 41l168 123q-49 61 -110 108l-62 -86q-6 4 -12 9.5t-14 11.5l63 84 q-61 43 -137 71l-64 -198l-24 8l-27 8l66 199q-37 10 -74 15t-78 7v-106h-16h-17v106q-41 -2 -77.5 -7t-73.5 -15l65 -199q-14 -4 -26 -8l-25 -8l-63 198q-76 -29 -138 -71l64 -84q-8 -6 -14 -11.5t-13 -9.5l-61 86q-61 -47 -111 -108l168 -123q-16 -20 -28 -41l-170 121 q-41 -57 -70 -135l100 -33l-4 -17l-6 -16l-100 33q-23 -74 -23 -152h207q0 -6 -1 -12t-1 -12q0 -8 1 -14.5t1 -12.5h-207zM389 322l574 688l41 -31l-478 -758z" />
<glyph unicode="F" d="M176 894q-4 34 -4 67q0 58 13 114q22 88 76 164t138 127q84 49 178 61q34 4 67 5q58 0 114 -14q88 -22 164.5 -76t126.5 -138q47 -78 61 -163q7 -41 7 -81q0 -43 -8 -86q-15 -82 -59 -155.5t-112 -128.5l322 -471q4 -7 4 -15q0 -4 -1 -9q-3 -13 -14 -19l-121 -72 q-7 -5 -15 -5q-4 0 -8 1q-13 4 -18 16l-268 506q-80 -31 -163 -33h-12q-76 0 -148 24q-78 26 -144.5 77t-111.5 127q-52 84 -64 177zM326 916q8 -62 42.5 -119.5t86 -95t111.5 -52.5q38 -9 78 -9q22 0 45 3q62 8 120 43q57 33 94 85t52 112q10 39 10 79q0 22 -2 44 q-8 63 -43 120.5t-86.5 94t-111.5 51.5q-38 9 -78 9q-22 0 -45 -3q-62 -8 -119.5 -43t-94.5 -86t-52 -111q-10 -39 -10 -78q0 -22 3 -44z" />
<glyph unicode="G" d="M0 446q10 63 80 110.5t172 57.5v11q-33 20 -52.5 62t-19.5 95q0 72 36 123t89 51t90 -51t37 -123q0 -53 -20.5 -95t-53.5 -62v-11q29 -4 54.5 -10t48.5 -14q-121 -53 -172 -144h-289zM303 326q6 43 35 88t74 84t104 66.5t127 33.5q2 6 2 16q-45 29 -71.5 86.5 t-26.5 128.5q0 49 13 91.5t35.5 74t54.5 50t67 18.5t65.5 -18.5t54 -50t37 -73.5t13.5 -92q0 -72 -26.5 -129t-72.5 -86v-16q70 -6 129.5 -33.5t104.5 -66.5t73.5 -84t34.5 -88h-827zM971 590q23 8 49.5 14t54.5 10v11q-33 20 -53.5 62t-20.5 95q0 72 37 123t90 51 q51 0 89 -51t38 -123q0 -53 -20.5 -95t-52.5 -62v-11q102 -10 171.5 -57t80.5 -111h-289q-27 43 -71 80t-103 64z" />
<glyph unicode="H" d="M0 494l717 716l717 -716h-189l-528 528l-527 -528h-190zM248 0v434l469 471l465 -465v-440h-361v346h-213v-346h-360z" />
<glyph unicode="I" d="M0 716.5q0 147.5 56.5 278.5t153.5 228.5t228 154t278.5 56.5t278.5 -56.5t228.5 -154t154 -228.5t56.5 -278.5t-56.5 -278.5t-154 -227t-228.5 -152.5t-278.5 -56.5t-278.5 56.5t-228 152.5t-153.5 227t-56.5 278.5zM477 786q10 0 23.5 -2t26 -6t22.5 -7t16 -7 q10 -4 16.5 -11.5t12.5 -15.5q12 -18 12 -41v-329q0 -29 -10 -39q-10 -16 -31 -23q-8 -2 -15 -4t-17.5 -2t-18.5 -1t-18 -3v-88h460v88q-10 2 -19 3t-17 5q-10 2 -17.5 4t-15.5 6q-20 6 -31 23q-12 14 -12 39v467l-367 -8v-48zM561 1094q0 -55 43 -95q41 -39 103 -38 q59 0 100 38.5t41 94t-41 94.5t-100 39q-61 0 -103 -39q-43 -41 -43 -94z" />
<glyph unicode="L" d="M0 717q0 160 64.5 298t175.5 236l145 -198q-2 0 -2 -2q-68 -66 -103.5 -152t-35.5 -182q0 -39 6 -76l-234 -76q-8 37 -12 74t-4 78zM59 428l234 76q18 -35 39.5 -64.5t50.5 -56.5q53 -55 120.5 -89t141.5 -44v-248q-98 10 -187 46t-165 91.5t-135.5 129t-98.5 159.5z M356 1335q78 47 170 73t190.5 26t190.5 -26t170 -73l-143 -198q-100 53 -217 53t-217 -53zM788 2v248q74 10 141.5 44t121.5 89q53 49 88 121l235 -76q-39 -86 -98 -159.5t-135 -129t-165.5 -91.5t-187.5 -46zM1049 1053l145 198q111 -98 175.5 -236t64.5 -298 q0 -41 -4.5 -78t-12.5 -74l-233 76q6 37 6 76q0 96 -36 182t-103 152q0 2 -2 2z" />
<glyph unicode="O" d="M27 481q49 29 80.5 72t45.5 94q9 35 9 71q0 17 -2 34q-6 53 -33 102q-41 63 -100 98l139 246q49 -29 103 -36q19 -3 38 -2q34 0 67 8q50 13 94 46t73 82q35 61 34 138h283q0 -57 21.5 -107.5t58.5 -87.5t87 -58.5t105 -21.5q37 0 72 10.5t66 26.5l139 -244 q-49 -29 -81 -71.5t-46 -94.5q-10 -36 -10 -72q0 -16 2 -32q6 -53 35 -102q18 -33 44.5 -57.5t55.5 -43.5l-141 -243q-49 29 -103 34q-17 2 -33 2q-36 0 -71 -9q-51 -13 -94 -46t-72 -82q-18 -33 -26.5 -66.5t-8.5 -68.5h-283q0 55 -21.5 105.5t-58 87t-87 58t-105.5 21.5 q-76 0 -137 -36zM428 716.5q0 -59.5 22.5 -112.5t61.5 -92t92 -61.5t112.5 -22.5t113 22.5t92.5 61.5t61.5 92t22.5 112.5t-22.5 113t-61.5 92.5t-92.5 61.5t-113 22.5t-112.5 -22.5t-92 -61.5t-61.5 -92.5t-22.5 -113z" />
<glyph unicode="P" d="M0 0l86 356l934 936l272 -270l-936 -936zM248 322l76 -74l784 786l-74 74zM1075 1348l55 55q32 31 82 31q13 0 27 -2q68 -10 125 -68q55 -57 68 -124q3 -15 2 -29q0 -47 -31 -78l-57 -56z" />
<glyph unicode="S" d="M0 268h1434q0 -55 -21.5 -104t-58.5 -85t-86 -57.5t-105 -21.5h-895q-55 0 -104 21.5t-85 57.5t-57.5 85t-21.5 104zM0 358l88 717h270l269 -270h178l270 270h268l91 -717h-1434zM446 1163h181v271h178v-271h180l-268 -268zM1163 88h92v90h-92v-90z" />
<glyph unicode="T" d="M59 1094l43 180h392v72q0 35 25.5 61.5t62.5 26.5h270q37 0 62.5 -27t25.5 -61v-72h391l43 -180h-106l-123 -1094h-856l-123 1094h-107zM338 932l76 -717h106l-76 717h-106zM563 1274h307v72q0 16 -18 16h-270q-18 0 -19 -16v-72zM657 215h119v717h-119v-717zM913 215 h107l76 717h-107z" />
<glyph unicode="U" d="M0 92q0 74 37 139.5t101.5 121t154.5 95t196 60.5q51 -37 107.5 -57.5t120 -20.5t120 20.5t107.5 57.5q106 -20 195.5 -60t155 -95.5t102.5 -121t37 -139.5h-1434zM422 938q0 84 22.5 157.5t62.5 129t94 87t115.5 31.5t115 -31.5t93.5 -87t63.5 -129t23.5 -157.5 t-23.5 -158.5t-63.5 -130t-93.5 -87.5t-115 -32t-115.5 32t-94 87.5t-62.5 130t-22.5 158.5z" />
<glyph unicode="V" d="M-1 870v12q0 12 1 23l4 43q33 4 73 7t76.5 5.5t69.5 3.5t51.5 1t56.5 -1t79 -5.5t77.5 -10.5t55.5 -14l75 -35q39 -20 99 -22q59 2 98 22l76 35q18 8 55 14t78 10.5t79 5.5t56.5 1t51 -1t70.5 -3.5t77 -5.5t72 -7l4 -43q1 -11 1 -23v-12q-1 -18 -5 -28q-16 -10 -26.5 -37 t-20 -63.5t-18.5 -78.5t-23.5 -83t-52.5 -63.5t-80 -33t-79.5 -12.5t-52.5 -2h-41l-53 2l-53 6l-43 19l-37 47l-31 71l-24 76l-13 55q-8 31 -30.5 37t-32.5 6h-2h-2q-10 0 -33 -6t-29 -37q-4 -18 -14 -55t-24.5 -76t-32 -72.5t-36 -46t-44 -18.5t-53 -7t-54.5 -1h-39 q-16 0 -53 2t-79 12.5t-80 33t-52 63.5t-24 84l-17 77q-8 37 -18 63.5t-29 37.5q-4 10 -5 28zM98 815l4 -57q4 -61 13.5 -100.5t23 -63t29.5 -35.5t35 -20q18 -10 53 -15.5t73 -7.5t72.5 -2t55.5 2q41 4 61.5 24.5t32.5 47.5q6 12 15 37.5t17.5 55.5t14.5 56.5t6 42.5 q0 29 -10 51.5t-45 40.5q-35 20 -123 33q-66 9 -146 9q-27 0 -55 -1q-57 -2 -83.5 -15t-36 -34.5t-7.5 -48.5zM829 780q0 -16 6.5 -42.5t14.5 -56.5t17.5 -55.5t15.5 -37.5q12 -27 33.5 -47.5t60.5 -24.5q20 -2 55 -2t73 2t72.5 7t53.5 16q18 8 34.5 20t30 35.5t22.5 62.5 t13 101l4 57q2 27 -7 48.5t-35.5 34.5t-84.5 15q-28 1 -54 1q-80 0 -146 -9q-88 -12 -123 -33q-35 -18 -45.5 -40.5t-10.5 -51.5z" />
<glyph unicode="\" d="M0 719q0 143 53 273t158 233q102 102 231 155.5t274.5 53.5t275.5 -53.5t232.5 -156t156 -232.5t53.5 -273q0 -145 -53.5 -275.5t-155.5 -232.5q-104 -104 -233.5 -157.5t-274.5 -53.5q-143 0 -273.5 53t-232.5 158q-104 102 -157.5 232.5t-53.5 275.5zM160 719 q0 -113 42 -215.5t122 -179.5q78 -80 179 -122t214 -42q94 0 179 29.5t155 82.5l-781 781q-53 -72 -81.5 -157t-28.5 -177zM391 1169l776 -776q51 70 79 152t28 174q0 115 -44 216t-119 176t-176 119t-218 44q-181 -1 -326 -105z" />
<glyph unicode="_" d="M0 90v1165q0 37 26.5 62.5t63.5 25.5h807l-180 -180h-537v-985h983v539l180 178v-805q0 -37 -25.5 -63.5t-62.5 -26.5h-1165q-37 0 -63.5 26.5t-26.5 63.5zM358 358l91 359l493 493l268 -268l-493 -493zM1030 1300l105 103q12 14 30.5 14t30.5 -14l207 -205 q14 -14 14 -32.5t-14 -30.5l-103 -105z" />
<glyph unicode="c" d="M0 717q0 147 56.5 278t153.5 228.5t228 154t279 56.5q150 0 279.5 -56.5t227 -154t154 -228.5t56.5 -278q0 -150 -56.5 -280t-154 -227t-227.5 -153.5t-279 -56.5q-147 0 -278.5 56.5t-228.5 153.5t-153.5 227t-56.5 280zM117 717q0 -125 47 -234.5t128 -191.5 t190.5 -129t234.5 -47t234.5 47t191.5 129t129 191.5t47 234.5t-47 233.5t-129 190.5t-191.5 129t-234.5 47t-234.5 -47t-190.5 -129t-128 -190.5t-47 -233.5zM604 717q0 33 17.5 59.5t46.5 40.5v395h100v-395q12 -6 23 -14l18 -21l258 45l16 -100l-258 -43 q-10 -35 -39.5 -57.5t-68.5 -22.5q-47 0 -80 33t-33 80z" />
<glyph unicode="d" d="M102 102v850h1229v-850q0 -43 -25.5 -72.5t-60.5 -29.5h-1059q-35 0 -59.5 29.5t-24.5 72.5zM102 995v150q0 43 25 73.5t59 30.5h201v131q0 23 12.5 38.5t31 15.5t31.5 -15.5t13 -38.5v-131h473v131q0 23 13.5 38.5t32 15.5t30.5 -15.5t12 -38.5v-131h209 q35 0 60.5 -30.5t25.5 -73.5v-150h-1229zM178 84h320v227h-320v-227zM178 383h320v188h-320v-188zM178 643h320v227h-320v-227zM350 1135q0 -33 22.5 -56.5t57.5 -23.5t57.5 23.5t22.5 56.5q0 43 -35 67v-39q0 -23 -13 -37t-31.5 -14t-31 14.5t-12.5 36.5v39 q-37 -22 -37 -67zM569 84h285v227h-285v-227zM569 383h285v188h-285v-188zM569 643h285v227h-285v-227zM913 1135q0 -33 22.5 -56.5t57.5 -23.5t57.5 23.5t22.5 56.5q0 45 -37 67v-39q0 -23 -12 -37t-30.5 -14t-32 14.5t-13.5 36.5v39q-35 -24 -35 -67zM926 84h319v227h-319 v-227zM926 383h319v188h-319v-188zM926 643h319v227h-319v-227z" />
<glyph unicode="f" d="M180 74v1286q0 31 19.5 52.5t48.5 21.5q45 0 61 -41q43 0 125 4q47 2 94 2q36 0 72 -1q84 -3 150.5 -17.5t78.5 -49.5q12 -41 40 -71.5t77 -42.5q24 -6 53 -6q32 0 71 7q75 13 185 60v-567q-49 -23 -117.5 -23t-134 16.5t-114.5 44t-60 62.5q-9 26 -61 26h-12 q-63 -3 -146.5 -24.5t-166.5 -56.5t-128 -68v-614q0 -31 -19.5 -52.5t-48 -21.5t-48 21.5t-19.5 52.5zM315 721q43 111 55 209q7 60 7 114q0 34 -3 66q-7 82 -25.5 143.5t-33.5 96.5v-629z" />
<glyph unicode="h" d="M0 716.5q0 147.5 56.5 278.5t153.5 228.5t228 154t278.5 56.5t277.5 -56.5t227.5 -154t154 -228.5t56.5 -278.5t-56.5 -278.5t-154 -228t-227.5 -153.5t-277.5 -56.5t-278.5 56.5t-228 153.5t-153.5 228t-56.5 278.5zM31 717q0 -72 14 -137.5t39 -124.5l317 131 q-27 66 -26 131q0 35 7 66.5t19 62.5l-317 133q-25 -59 -39 -125.5t-14 -136.5zM408 716.5q0 -63.5 24.5 -119.5t66.5 -98t98 -66.5t119.5 -24.5t120 24.5t98.5 66.5t66.5 98t24.5 119.5t-24.5 120t-66.5 98.5t-98.5 66.5t-120 24.5t-119.5 -24.5t-98 -66.5t-66.5 -98.5 t-24.5 -120zM453 84q125 -53 264 -53q137 0 262 53l-133 317q-31 -12 -62.5 -19t-66.5 -7q-66 0 -131 26zM453 1350l133 -320q59 27 131 27q70 0 129 -27l133 320q-121 51 -262 51q-143 0 -264 -51zM1030 586l320 -131q51 125 51 262t-51 262l-320 -133q27 -59 27 -129 q0 -72 -27 -131z" />
<glyph unicode="i" d="M0 307v398l428 507h578l428 -507v-398q0 -35 -26 -60.5t-62 -25.5h-1258q-37 0 -62.5 25.5t-25.5 60.5zM102 668h283l150 -162h364l150 162h282l-373 444h-483z" />
<glyph unicode="l" d="M0 0v358h358v-358h-358zM0 539v356h358v-356h-358zM0 1075v359h358v-359h-358zM537 0v358h897v-358h-897zM537 539v356h897v-356h-897zM537 1075v359h897v-359h-897z" />
<glyph unicode="m" d="M0 274l592 355l125 -113l125 113l592 -355h-1434zM0 332v827l522 -469zM43 1159h1348l-674 -502zM911 690l523 469v-827z" />
<glyph unicode="p" d="M0 360l23 646q2 33 24.5 55t54.5 22h240v289h750v-289h239q33 0 55.5 -22.5t24.5 -54.5l23 -646q2 -33 -20.5 -54t-53.5 -21h-186l47 -224h-1008l47 224h-186q-31 0 -53.5 21t-20.5 54zM289 123h856l-103 471h-651zM403 1083h627v228h-627v-228zM1212 807h103v168h-103 v-168z" />
<glyph unicode="s" d="M0 0v1434h1260l174 -174v-1260h-1434zM150 150h1134v1048l-88 86h-123v-459h-799v459h-124v-1134zM717 899h182v338h-182v-338z" />
<glyph unicode="t" d="M-1 265q0 21 17 38l29 27q18 18 41 43l53 53l56 55l141 142q33 2 61 16q25 12 48.5 37.5t33.5 75.5q23 14 46.5 -2.5t43.5 -34.5q8 10 29 30l47 46l-55 57q-52 -25 -109 -25q-22 0 -45 3q-82 13 -141 73q-51 51 -69 120q-8 32 -8 62q0 36 11 72l205 -195l160 160 l-195 205q36 10 72 10q30 0 61 -7q68 -15 121 -69q59 -59 72 -141q3 -21 3 -42q0 -59 -26 -111l60 -58l69 68l62 59l47 49l29 27q14 16 22 31l19 30q8 16 14 31l90 64l25 -25l24 -25l-65 -88q-14 -6 -31 -14q-14 -8 -29.5 -18.5t-29.5 -24.5l-29 -29l-45 -45l-62 -61 l-65 -70l592 -561q33 -29 35 -70v-5q0 -37 -27 -64l-21 -19q-27 -27 -64 -26h-5q-41 2 -70 35l-559 589q-27 -25 -45 -43l-29 -30q18 -20 35 -43t2 -47q-49 -10 -75.5 -34t-38.5 -48q-14 -29 -17 -62l-141 -141l-57 -55l-52 -54l-41 -43l-26 -26q-17 -17 -39 -18h-2 q-23 1 -44.5 11.5t-39 23.5t-23.5 22q-8 6 -21.5 23.5t-23.5 38.5q-11 24 -11 47zM98 199q11 -9 20.5 -9.5t16.5 9.5l416 415q9 8 9 17q0 10 -11 20q-9 9 -19 9l-18 -9l-414 -415q-9 -7 -9 -16.5t9 -20.5z" />
<glyph unicode="v" d="M16 678q-15 18 -15 37t15 39q10 14 23 26l24 25q68 66 144 124t160 101q53 29 110.5 50.5t116.5 31.5q33 4 62.5 6t60.5 2t61.5 -2t61.5 -6q59 -10 116.5 -31.5t110.5 -50.5q84 -43 161 -101.5t142 -123.5q14 -12 27 -25l22 -26q14 -19 14.5 -38.5t-14.5 -37.5 q-35 -41 -74.5 -77t-80.5 -69q-90 -72 -191.5 -127t-214.5 -79q-66 -14 -141 -15q-72 0 -142 15q-113 25 -214 80t-191 126q-41 33 -80 69t-74 77zM442 716.5q0 -57.5 21.5 -107.5t58.5 -88t87 -59.5t107.5 -21.5t107.5 21.5t87 59.5t58.5 88t21.5 107.5t-21.5 107.5 t-58.5 87t-87 58.5t-107.5 21.5t-107.5 -21.5t-87 -58.5t-58.5 -87t-21.5 -107.5zM610 717q0 45 31 75.5t76 30.5t75.5 -30.5t30.5 -75.5t-30.5 -76t-75.5 -31t-76 31t-31 76z" />
<glyph unicode="x" d="M0 420v594l420 420h594l420 -420v-594l-420 -420h-594zM299 461l160 -162l258 258l258 -258l160 162l-256 256l256 258l-160 162l-258 -258l-258 258l-160 -162l258 -258z" />
<glyph unicode="{" d="M0 716.5q0 147.5 56.5 278.5t153.5 228.5t228 154t278.5 56.5t278.5 -56.5t228.5 -154t154 -228.5t56.5 -278.5t-56.5 -278.5t-154 -228t-228.5 -153.5t-278.5 -56.5t-278.5 56.5t-228 153.5t-153.5 228t-56.5 278.5zM313 592h279v-279h250v279h280v252h-280v278h-250 v-278h-279v-252z" />
<glyph unicode="}" d="M0 716.5q0 147.5 56.5 278.5t153.5 228.5t228 154t278.5 56.5t278.5 -56.5t228.5 -154t154 -228.5t56.5 -278.5t-56.5 -278.5t-154 -228t-228.5 -153.5t-278.5 -56.5t-278.5 56.5t-228 153.5t-153.5 228t-56.5 278.5zM311 592h809v250h-809v-250z" />
<glyph unicode="&#xad;" d="M0 496v442h1434v-442h-1434z" />
<glyph unicode="&#xb2;" d="M14 457v520h596v457l809 -717l-809 -717v457h-596z" />
<glyph unicode="&#xb3;" d="M129 938l367 367l419 -422l326 323l64 -1077l-1078 64l324 325z" />
<glyph unicode="&#xb9;" d="M129 494l422 421l-324 326l1078 64l-64 -1078l-326 324l-419 -422z" />
<glyph unicode="&#x2000;" horiz-adv-x="716" />
<glyph unicode="&#x2001;" />
<glyph unicode="&#x2002;" horiz-adv-x="716" />
<glyph unicode="&#x2003;" />
<glyph unicode="&#x2004;" horiz-adv-x="477" />
<glyph unicode="&#x2005;" horiz-adv-x="358" />
<glyph unicode="&#x2006;" horiz-adv-x="237" />
<glyph unicode="&#x2007;" horiz-adv-x="237" />
<glyph unicode="&#x2008;" horiz-adv-x="178" />
<glyph unicode="&#x2009;" horiz-adv-x="286" />
<glyph unicode="&#x200a;" horiz-adv-x="77" />
<glyph unicode="&#x2010;" d="M0 496v442h1434v-442h-1434z" />
<glyph unicode="&#x2011;" d="M0 496v442h1434v-442h-1434z" />
<glyph unicode="&#x2012;" d="M0 496v442h1434v-442h-1434z" />
<glyph unicode="&#x2013;" horiz-adv-x="1024" d="M0 496v442h1024v-442h-1024z" />
<glyph unicode="&#x2014;" horiz-adv-x="2048" d="M0 496v442h2048v-442h-2048z" />
<glyph unicode="&#x2019;" d="M0 805v450q0 35 26.5 61.5t61.5 26.5h897q37 0 63.5 -26.5t26.5 -61.5v-450q0 -35 -26.5 -61.5t-63.5 -26.5h-627l-178 -178v178h-92q-35 0 -61.5 26.5t-26.5 61.5zM446 358v269h629q37 0 62.5 26.5t25.5 63.5v178h180q37 0 64 -25.5t27 -64.5v-447q0 -37 -27 -63.5 t-64 -26.5h-88v-180l-180 180h-538q-35 0 -63 26.5t-28 63.5z" />
<glyph unicode="&#x201c;" d="M0 496q-2 18 4 61t25.5 102.5t58.5 130t101.5 145.5t154.5 147.5t219 138.5h96q-49 -47 -108 -109.5t-109.5 -125t-84 -116t-33.5 -79.5h18l20 -5q63 -12 111.5 -43.5t79.5 -76.5t42 -100.5t-1 -115t-43 -107.5t-75 -79t-100.5 -43t-119.5 0q-55 10 -100 36t-79 62.5 t-54.5 82t-22.5 94.5zM774 496q-2 18 4 61t25.5 102.5t58.5 130t101.5 145.5t154.5 147.5t219 138.5h97q-49 -47 -108.5 -109.5t-111 -125t-85 -116t-33.5 -79.5h20l21 -5q63 -12 111 -43.5t78 -76.5t41 -100.5t1 -114.5q-12 -59 -43 -107.5t-75 -79.5t-100 -43t-120 0 q-55 10 -100 36t-79 62.5t-54.5 82t-22.5 94.5z" />
<glyph unicode="&#x201d;" d="M0 496q-2 18 4 61t25.5 102.5t58.5 130t101.5 145.5t154.5 147.5t219 138.5h96q-49 -47 -108 -109.5t-109.5 -125t-84 -116t-33.5 -79.5h18l20 -5q63 -12 111.5 -43.5t79.5 -76.5t42 -100.5t-1 -115t-43 -107.5t-75 -79t-100.5 -43t-119.5 0q-55 10 -100 36t-79 62.5 t-54.5 82t-22.5 94.5zM774 496q-2 18 4 61t25.5 102.5t58.5 130t101.5 145.5t154.5 147.5t219 138.5h97q-49 -47 -108.5 -109.5t-111 -125t-85 -116t-33.5 -79.5h20l21 -5q63 -12 111 -43.5t78 -76.5t41 -100.5t1 -114.5q-12 -59 -43 -107.5t-75 -79.5t-100 -43t-120 0 q-55 10 -100 36t-79 62.5t-54.5 82t-22.5 94.5z" />
<glyph unicode="&#x2026;" horiz-adv-x="4300" d="M2867 145v879h522q-57 -33 -110 -78l-33 -33l-31 -34h-203v-590h873v143l145 103v-390h-1163zM3209 481q0 84 39 174t110.5 165t174 124t229.5 53v291l539 -416l-545 -383v285q-172 0 -278.5 -46t-166.5 -101q-69 -66 -102 -146zM1434 145v879h522q-57 -33 -110 -78 l-33 -33l-31 -34h-203v-590h873v143l145 103v-390h-1163zM1776 481q0 84 39 174t110.5 165t174 124t229.5 53v291l539 -416l-545 -383v285q-172 0 -278.5 -46t-166.5 -101q-69 -66 -102 -146zM0 145v879h522q-57 -33 -110 -78l-33 -33l-31 -34h-203v-590h873v143l145 103 v-390h-1163zM342 481q0 84 39 174t110.5 165t174 124t229.5 53v291l539 -416l-545 -383v285q-172 0 -278.5 -46t-166.5 -101q-69 -66 -102 -146z" />
<glyph unicode="&#x202f;" horiz-adv-x="286" />
<glyph unicode="&#x2039;" d="M332 717l385 221l385 221v-442v-443l-385 220z" />
<glyph unicode="&#x203a;" d="M332 274v443v442l385 -221l385 -221l-385 -223z" />
<glyph unicode="&#x205f;" horiz-adv-x="358" />
<glyph unicode="&#xe000;" horiz-adv-x="1435" d="M0 1435h1435v-1435h-1435v1435z" />
<glyph unicode="&#xfb01;" horiz-adv-x="2867" d="M1434 307v398l428 507h578l428 -507v-398q0 -35 -26 -60.5t-62 -25.5h-1258q-37 0 -62.5 25.5t-25.5 60.5zM1536 668h283l150 -162h364l150 162h282l-373 444h-483zM180 74v1286q0 31 19.5 52.5t48.5 21.5q45 0 61 -41q43 0 125 4q47 2 94 2q36 0 72 -1 q84 -3 150.5 -17.5t78.5 -49.5q12 -41 40 -71.5t77 -42.5q24 -6 53 -6q32 0 71 7q75 13 185 60v-567q-49 -23 -117.5 -23t-134 16.5t-114.5 44t-60 62.5q-9 26 -61 26h-12q-63 -3 -146.5 -24.5t-166.5 -56.5t-128 -68v-614q0 -31 -19.5 -52.5t-48 -21.5t-48 21.5t-19.5 52.5 zM315 721q43 111 55 209q7 60 7 114q0 34 -3 66q-7 82 -25.5 143.5t-33.5 96.5v-629z" />
<glyph unicode="&#xfb02;" horiz-adv-x="2867" d="M1434 0v358h358v-358h-358zM1434 539v356h358v-356h-358zM1434 1075v359h358v-359h-358zM1971 0v358h897v-358h-897zM1971 539v356h897v-356h-897zM1971 1075v359h897v-359h-897zM180 74v1286q0 31 19.5 52.5t48.5 21.5q45 0 61 -41q43 0 125 4q47 2 94 2q36 0 72 -1 q84 -3 150.5 -17.5t78.5 -49.5q12 -41 40 -71.5t77 -42.5q24 -6 53 -6q32 0 71 7q75 13 185 60v-567q-49 -23 -117.5 -23t-134 16.5t-114.5 44t-60 62.5q-9 26 -61 26h-12q-63 -3 -146.5 -24.5t-166.5 -56.5t-128 -68v-614q0 -31 -19.5 -52.5t-48 -21.5t-48 21.5t-19.5 52.5 zM315 721q43 111 55 209q7 60 7 114q0 34 -3 66q-7 82 -25.5 143.5t-33.5 96.5v-629z" />
<glyph unicode="&#xfb03;" horiz-adv-x="4300" d="M2867 307v398l428 507h578l428 -507v-398q0 -35 -26 -60.5t-62 -25.5h-1258q-37 0 -62.5 25.5t-25.5 60.5zM2969 668h283l150 -162h364l150 162h282l-373 444h-483zM1614 74v1286q0 31 19.5 52.5t48.5 21.5q45 0 61 -41q43 0 125 4q47 2 94 2q36 0 72 -1 q84 -3 150.5 -17.5t78.5 -49.5q12 -41 40 -71.5t77 -42.5q24 -6 53 -6q32 0 71 7q75 13 185 60v-567q-49 -23 -117.5 -23t-134 16.5t-114.5 44t-60 62.5q-9 26 -61 26h-12q-63 -3 -146.5 -24.5t-166.5 -56.5t-128 -68v-614q0 -31 -19.5 -52.5t-48 -21.5t-48 21.5t-19.5 52.5 zM1749 721q43 111 55 209q7 60 7 114q0 34 -3 66q-7 82 -25.5 143.5t-33.5 96.5v-629zM180 74v1286q0 31 19.5 52.5t48.5 21.5q45 0 61 -41q43 0 125 4q47 2 94 2q36 0 72 -1q84 -3 150.5 -17.5t78.5 -49.5q12 -41 40 -71.5t77 -42.5q24 -6 53 -6q32 0 71 7q75 13 185 60 v-567q-49 -23 -117.5 -23t-134 16.5t-114.5 44t-60 62.5q-9 26 -61 26h-12q-63 -3 -146.5 -24.5t-166.5 -56.5t-128 -68v-614q0 -31 -19.5 -52.5t-48 -21.5t-48 21.5t-19.5 52.5zM315 721q43 111 55 209q7 60 7 114q0 34 -3 66q-7 82 -25.5 143.5t-33.5 96.5v-629z" />
<glyph unicode="&#xfb04;" horiz-adv-x="4300" d="M2867 0v358h358v-358h-358zM2867 539v356h358v-356h-358zM2867 1075v359h358v-359h-358zM3404 0v358h897v-358h-897zM3404 539v356h897v-356h-897zM3404 1075v359h897v-359h-897zM1614 74v1286q0 31 19.5 52.5t48.5 21.5q45 0 61 -41q43 0 125 4q47 2 94 2q36 0 72 -1 q84 -3 150.5 -17.5t78.5 -49.5q12 -41 40 -71.5t77 -42.5q24 -6 53 -6q32 0 71 7q75 13 185 60v-567q-49 -23 -117.5 -23t-134 16.5t-114.5 44t-60 62.5q-9 26 -61 26h-12q-63 -3 -146.5 -24.5t-166.5 -56.5t-128 -68v-614q0 -31 -19.5 -52.5t-48 -21.5t-48 21.5t-19.5 52.5 zM1749 721q43 111 55 209q7 60 7 114q0 34 -3 66q-7 82 -25.5 143.5t-33.5 96.5v-629zM180 74v1286q0 31 19.5 52.5t48.5 21.5q45 0 61 -41q43 0 125 4q47 2 94 2q36 0 72 -1q84 -3 150.5 -17.5t78.5 -49.5q12 -41 40 -71.5t77 -42.5q24 -6 53 -6q32 0 71 7q75 13 185 60 v-567q-49 -23 -117.5 -23t-134 16.5t-114.5 44t-60 62.5q-9 26 -61 26h-12q-63 -3 -146.5 -24.5t-166.5 -56.5t-128 -68v-614q0 -31 -19.5 -52.5t-48 -21.5t-48 21.5t-19.5 52.5zM315 721q43 111 55 209q7 60 7 114q0 34 -3 66q-7 82 -25.5 143.5t-33.5 96.5v-629z" />
</font>
</defs>
</svg>
